<?xml version="1.0" encoding="UTF-8" standalone="no"?>
<svg xmlns="http://www.w3.org/2000/svg" xmlns:xlink="http://www.w3.org/1999/xlink" width="192" height="192" viewBox="0 0 144 144">
  <linearGradient id="c" x1="15.193" x2="120.855" y1="77.313" y2="77.313" gradientUnits="userSpaceOnUse">
    <stop offset="0" stop-color="#fff"/>
    <stop offset="1"/>
  </linearGradient>
  <linearGradient id="d" x1="30.131" x2="101.383" y1="114.274" y2="39.161" gradientUnits="userSpaceOnUse">
    <stop offset=".011" stop-color="#98aff2"/>
    <stop offset=".096" stop-color="#9db3f3"/>
    <stop offset=".199" stop-color="#acbff5"/>
    <stop offset=".31" stop-color="#c4d2f8"/>
    <stop offset=".428" stop-color="#e6ecfc"/>
    <stop offset=".5" stop-color="#fff"/>
    <stop offset=".519" stop-color="#f7f9fe"/>
    <stop offset=".611" stop-color="#d5defa"/>
    <stop offset=".704" stop-color="#bacaf6"/>
    <stop offset=".799" stop-color="#a7bbf4"/>
    <stop offset=".897" stop-color="#9cb2f2"/>
    <stop offset="1" stop-color="#98aff2"/>
  </linearGradient>
  <linearGradient id="a">
    <stop offset=".011" stop-color="#b1caff"/>
    <stop offset=".111" stop-color="#b6cdff"/>
    <stop offset=".232" stop-color="#c5d8ff"/>
    <stop offset=".363" stop-color="#dde8ff"/>
    <stop offset=".5" stop-color="#fff"/>
    <stop offset=".526" stop-color="#f8faff"/>
    <stop offset=".64" stop-color="#dde6ff"/>
    <stop offset=".755" stop-color="#cad8ff"/>
    <stop offset=".874" stop-color="#bfd0ff"/>
    <stop offset="1" stop-color="#bbcdff"/>
  </linearGradient>
  <linearGradient id="e" x1="1065.43" x2="1158.018" y1="95.011" y2="2.423" gradientTransform="matrix(.849 -.5284 .5284 .849 -910.0727 618.7241)" gradientUnits="userSpaceOnUse" xlink:href="#a"/>
  <linearGradient id="f" x1="1073.158" x2="1164.618" y1="102.772" y2="11.311" gradientTransform="matrix(.849 -.5284 .5284 .849 -910.0727 618.7241)" gradientUnits="userSpaceOnUse" xlink:href="#a"/>
  <linearGradient id="g" x1="75.36" x2="167.626" y1="92.327" y2="241.508" gradientUnits="userSpaceOnUse">
    <stop offset="0" stop-color="#fff"/>
    <stop offset="1" stop-color="#9195f2"/>
  </linearGradient>
  <linearGradient id="b">
    <stop offset="0" stop-color="#9ab1ff"/>
    <stop offset="1" stop-color="#444973"/>
  </linearGradient>
  <linearGradient id="h" x1="14.187" x2="117.257" y1="76.693" y2="76.693" gradientUnits="userSpaceOnUse" xlink:href="#b"/>
  <linearGradient id="i" x1="57.506" x2="73.948" y1="76.751" y2="76.751" gradientUnits="userSpaceOnUse" xlink:href="#b"/>
  <linearGradient id="j" x1="49.926" x2="81.527" y1="76.751" y2="76.751" gradientUnits="userSpaceOnUse">
    <stop offset="0" stop-color="#9ab1ff"/>
    <stop offset="1" stop-color="#626aa4"/>
  </linearGradient>
  <g fill="#fff" stroke-width="0">
    <path fill="none" d="m144 144h-144v-144h144z"/>
    <path fill="#000" d="m103.995 122.896c0 8.636-23.175 15.634-51.762 15.634-28.588 0-51.764-6.999-51.764-15.634 0-8.633 23.175-15.633 51.764-15.633 28.587 0 51.762 7 51.762 15.633z" opacity=".2"/>
    <path fill="url(#c)" d="m35.905 25.71c-23.226 14.456-27.676 49.278-9.936 77.78 17.738 28.5 50.945 39.883 74.173 25.426 23.228-14.458 27.677-49.276 9.938-77.778s-50.946-39.886-74.175-25.428zm36.384 58.455c-3.084 1.919-7.494.405-9.848-3.376-2.353-3.783-1.761-8.403 1.32-10.322 3.084-1.92 7.49-.41 9.845 3.374 2.354 3.783 1.766 8.406-1.317 10.325z" opacity=".2"/>
    <path fill="url(#d)" d="m33.609 25.148c-23.228 14.458-27.678 49.28-9.939 77.78 17.737 28.497 50.947 39.884 74.175 25.426 23.227-14.456 27.677-49.281 9.939-77.778-17.739-28.501-50.949-39.886-74.175-25.428zm36.38 58.452c-3.083 1.918-7.492.408-9.847-3.374-2.354-3.783-1.762-8.408 1.32-10.325 3.083-1.92 7.491-.408 9.846 3.377 2.354 3.781 1.763 8.403-1.32 10.322z"/>
    <path fill="url(#e)" d="m60.142 80.226c-.219-.352-.398-.709-.572-1.072l-30.372 31.511c10.303 12.641 23.903 20.736 37.559 23.17l-1.525-49.653c-1.94-.536-3.815-1.908-5.09-3.956z"/>
    <path fill="url(#f)" d="m68.212 70.19 30.373-31.514c-10.144-10.669-22.765-17.367-35.34-19.245l1.526 49.652c1.161.063 2.342.445 3.441 1.107z"/>
    <path d="m60.142 80.226c-.219-.352-.398-.709-.572-1.072l-30.372 31.511c10.303 12.641 23.903 20.736 37.559 23.17l-1.525-49.653c-1.94-.536-3.815-1.908-5.09-3.956z" opacity=".8"/>
    <path d="m68.212 70.19 30.373-31.514c-10.144-10.669-22.765-17.367-35.34-19.245l1.526 49.652c1.161.063 2.342.445 3.441 1.107z" opacity=".8"/>
    <g opacity=".4">
      <path d="m61.361 81.637c-.281-.3-.538-.609-.775-.93l-20.802 40.32c12.423 9.997 26.838 14.469 40.005 13.19l-12.82-49.967c-1.914-.011-3.964-.887-5.608-2.614z" opacity=".8"/>
      <path d="m66.504 69.235 20.8-40.325c-11.819-8.038-25.014-11.367-37.055-9.814l12.821 49.96c1.087-.254 2.27-.188 3.434.18z" opacity=".8"/>
    </g>
    <g opacity=".68">
      <path d="m67.781 83.536c-.334.072-.675.1-1.016.111l24.713 46.987c12.397-5.098 21.108-15.822 24.788-29.236l-44.396-21.445c-.692 1.82-2.125 3.177-4.088 3.583z" opacity=".9"/>
      <path d="m59.734 70.282-24.716-46.993c-10.626 5.847-17.984 16.178-21.045 28.698l44.397 21.445c.182-1.209.657-2.291 1.365-3.15z" opacity=".9"/>
    </g>
    <path fill="url(#g)" d="m24.177 102.612c17.497 28.113 50.368 39.383 73.28 25.122 22.91-14.259 27.316-48.731 9.819-76.844-17.497-28.111-50.372-39.381-73.282-25.122-22.912 14.261-27.314 48.732-9.817 76.844zm80.552-50.136c16.623 26.707 12.649 59.326-8.857 72.711-8.838 5.501-19.872 7.095-31.069 4.489-15.048-3.502-28.927-13.944-38.079-28.649-16.623-26.707-12.65-59.326 8.856-72.711s52.526-2.547 69.149 24.161z"/>
    <path fill="url(#h)" d="m68.213 17.691c16.652 3.875 31.943 15.32 41.952 31.401 18.448 29.642 13.523 66.165-10.979 81.416-24.503 15.251-59.448 3.543-77.898-26.098-7.343-11.796-11.192-25.042-11.192-37.835 0-4.646.508-9.231 1.54-13.667 2.996-12.874 10.323-23.498 20.632-29.914 10.307-6.416 23.072-8.299 35.945-5.303zm28.86 109.421c22.625-14.083 26.978-48.139 9.697-75.906-17.284-27.769-49.76-38.9-72.387-24.815-22.631 14.086-26.983 48.138-9.698 75.906 17.282 27.766 49.757 38.901 72.388 24.815z"/>
    <path fill="url(#i)" d="m59.133 80.857c2.776 4.459 7.994 6.249 11.631 3.986 3.636-2.263 4.336-7.736 1.561-12.197-2.779-4.462-7.998-6.253-11.635-3.989-3.636 2.264-4.334 7.736-1.556 12.2zm9.795-6.098c1.557 2.502 1.427 5.627-.277 6.688-1.705 1.061-4.565-.203-6.122-2.703-.73-1.174-1.09-2.486-1.09-3.658 0-1.325.46-2.47 1.365-3.034 1.704-1.061 4.566.205 6.125 2.707z"/>
    <path fill="url(#j)" d="m53.051 84.642c5.338 8.575 15.368 12.014 22.356 7.663 6.991-4.35 8.331-14.866 2.994-23.44-5.337-8.577-15.365-12.018-22.354-7.667-6.99 4.352-8.333 14.871-2.996 23.445zm3.895-2.424c-3.699-5.942-2.769-13.229 2.073-16.244 4.843-3.013 11.79-.63 15.488 5.313 3.698 5.94 2.767 13.225-2.074 16.239-4.843 3.014-11.792.631-15.487-5.308z" opacity=".5"/>
  </g>
</svg>
